<mxfile host="app.diagrams.net" modified="2022-07-24T04:02:42.097Z" agent="5.0 (Windows NT 10.0; Win64; x64) AppleWebKit/537.36 (KHTML, like Gecko) Chrome/103.0.0.0 Safari/537.36" etag="3U1GLIOdSUQ3bNcrDIYs" version="20.2.0" type="github">
  <diagram id="r22Jp5XvRxODTB_997bI" name="Page-1">
    <mxGraphModel dx="1422" dy="786" grid="1" gridSize="10" guides="1" tooltips="1" connect="1" arrows="1" fold="1" page="1" pageScale="1" pageWidth="827" pageHeight="1169" math="1" shadow="0">
      <root>
        <mxCell id="0" />
        <mxCell id="1" parent="0" />
        <mxCell id="SDQz8cxFvoT4wKFTNqu8-4" style="edgeStyle=orthogonalEdgeStyle;rounded=0;orthogonalLoop=1;jettySize=auto;html=1;exitX=1;exitY=0.5;exitDx=0;exitDy=0;fontSize=15;fontStyle=1;strokeWidth=3;" parent="1" source="SDQz8cxFvoT4wKFTNqu8-1" target="SDQz8cxFvoT4wKFTNqu8-3" edge="1">
          <mxGeometry relative="1" as="geometry" />
        </mxCell>
        <mxCell id="br7OnLSfUWVw1Vhd88-w-10" style="edgeStyle=orthogonalEdgeStyle;rounded=0;orthogonalLoop=1;jettySize=auto;html=1;exitX=0;exitY=0.5;exitDx=0;exitDy=0;entryX=0;entryY=0.5;entryDx=0;entryDy=0;fontSize=15;fontStyle=1;strokeWidth=3;" parent="1" source="SDQz8cxFvoT4wKFTNqu8-1" target="br7OnLSfUWVw1Vhd88-w-11" edge="1">
          <mxGeometry relative="1" as="geometry">
            <mxPoint x="130" y="640" as="targetPoint" />
            <Array as="points">
              <mxPoint x="140" y="140" />
              <mxPoint x="140" y="720" />
            </Array>
          </mxGeometry>
        </mxCell>
        <mxCell id="SDQz8cxFvoT4wKFTNqu8-1" value="Trajectory" style="rounded=0;whiteSpace=wrap;html=1;fillColor=#dae8fc;strokeColor=#6c8ebf;fontSize=15;fontStyle=1;strokeWidth=3;" parent="1" vertex="1">
          <mxGeometry x="170" y="110" width="120" height="60" as="geometry" />
        </mxCell>
        <mxCell id="br7OnLSfUWVw1Vhd88-w-2" style="edgeStyle=orthogonalEdgeStyle;rounded=0;orthogonalLoop=1;jettySize=auto;html=1;exitX=1;exitY=0.5;exitDx=0;exitDy=0;entryX=0;entryY=0.5;entryDx=0;entryDy=0;fontSize=15;fontStyle=1;strokeWidth=3;" parent="1" source="SDQz8cxFvoT4wKFTNqu8-2" target="br7OnLSfUWVw1Vhd88-w-1" edge="1">
          <mxGeometry relative="1" as="geometry" />
        </mxCell>
        <mxCell id="SDQz8cxFvoT4wKFTNqu8-2" value="Wing Model" style="rounded=0;whiteSpace=wrap;html=1;fillColor=#dae8fc;strokeColor=#6c8ebf;fontSize=15;fontStyle=1;strokeWidth=3;" parent="1" vertex="1">
          <mxGeometry x="170" y="245" width="120" height="60" as="geometry" />
        </mxCell>
        <mxCell id="br7OnLSfUWVw1Vhd88-w-4" style="edgeStyle=orthogonalEdgeStyle;rounded=0;orthogonalLoop=1;jettySize=auto;html=1;exitX=0.5;exitY=1;exitDx=0;exitDy=0;entryX=0.5;entryY=0;entryDx=0;entryDy=0;fontSize=15;fontStyle=1;strokeWidth=3;" parent="1" source="SDQz8cxFvoT4wKFTNqu8-3" target="SDQz8cxFvoT4wKFTNqu8-5" edge="1">
          <mxGeometry relative="1" as="geometry" />
        </mxCell>
        <mxCell id="SDQz8cxFvoT4wKFTNqu8-3" value="Aerodynamic Force and Moments" style="whiteSpace=wrap;html=1;fillColor=#d5e8d4;strokeColor=#82b366;fontSize=15;fontStyle=1;strokeWidth=3;" parent="1" vertex="1">
          <mxGeometry x="530" y="110" width="120" height="60" as="geometry" />
        </mxCell>
        <mxCell id="br7OnLSfUWVw1Vhd88-w-5" style="edgeStyle=orthogonalEdgeStyle;rounded=0;orthogonalLoop=1;jettySize=auto;html=1;exitX=0.5;exitY=1;exitDx=0;exitDy=0;entryX=0.5;entryY=0;entryDx=0;entryDy=0;fontSize=15;fontStyle=1;strokeWidth=3;" parent="1" source="SDQz8cxFvoT4wKFTNqu8-5" target="br7OnLSfUWVw1Vhd88-w-7" edge="1">
          <mxGeometry relative="1" as="geometry">
            <mxPoint x="420" y="410" as="targetPoint" />
          </mxGeometry>
        </mxCell>
        <mxCell id="SDQz8cxFvoT4wKFTNqu8-5" value="Circular Frequency" style="ellipse;whiteSpace=wrap;html=1;fillColor=#f8cecc;strokeColor=#b85450;fontSize=15;fontStyle=1;strokeWidth=3;" parent="1" vertex="1">
          <mxGeometry x="545" y="250" width="90" height="50" as="geometry" />
        </mxCell>
        <mxCell id="br7OnLSfUWVw1Vhd88-w-3" style="edgeStyle=orthogonalEdgeStyle;rounded=0;orthogonalLoop=1;jettySize=auto;html=1;exitX=1;exitY=0.5;exitDx=0;exitDy=0;entryX=0;entryY=0.5;entryDx=0;entryDy=0;fontSize=15;fontStyle=1;strokeWidth=3;" parent="1" source="br7OnLSfUWVw1Vhd88-w-1" target="SDQz8cxFvoT4wKFTNqu8-5" edge="1">
          <mxGeometry relative="1" as="geometry" />
        </mxCell>
        <mxCell id="br7OnLSfUWVw1Vhd88-w-1" value="Aeroelastic Equations Of Motion" style="whiteSpace=wrap;html=1;fillColor=#d5e8d4;strokeColor=#82b366;fontSize=15;fontStyle=1;strokeWidth=3;" parent="1" vertex="1">
          <mxGeometry x="360" y="245" width="120" height="60" as="geometry" />
        </mxCell>
        <mxCell id="br7OnLSfUWVw1Vhd88-w-8" style="edgeStyle=orthogonalEdgeStyle;rounded=0;orthogonalLoop=1;jettySize=auto;html=1;exitX=0.5;exitY=1;exitDx=0;exitDy=0;entryX=0.5;entryY=0;entryDx=0;entryDy=0;fontSize=15;fontStyle=1;strokeWidth=3;" parent="1" source="br7OnLSfUWVw1Vhd88-w-7" target="br7OnLSfUWVw1Vhd88-w-9" edge="1">
          <mxGeometry relative="1" as="geometry">
            <mxPoint x="430" y="530" as="targetPoint" />
          </mxGeometry>
        </mxCell>
        <mxCell id="br7OnLSfUWVw1Vhd88-w-7" value="Flutter Determinant" style="whiteSpace=wrap;html=1;fillColor=#d5e8d4;strokeColor=#82b366;fontSize=15;fontStyle=1;strokeWidth=3;" parent="1" vertex="1">
          <mxGeometry x="360" y="420" width="120" height="60" as="geometry" />
        </mxCell>
        <mxCell id="br7OnLSfUWVw1Vhd88-w-12" style="edgeStyle=orthogonalEdgeStyle;rounded=0;orthogonalLoop=1;jettySize=auto;html=1;exitX=0.5;exitY=1;exitDx=0;exitDy=0;entryX=0.5;entryY=0;entryDx=0;entryDy=0;fontSize=15;fontStyle=1;strokeWidth=3;" parent="1" source="br7OnLSfUWVw1Vhd88-w-9" target="br7OnLSfUWVw1Vhd88-w-11" edge="1">
          <mxGeometry relative="1" as="geometry" />
        </mxCell>
        <mxCell id="br7OnLSfUWVw1Vhd88-w-9" value="Critical Velocity" style="rounded=1;whiteSpace=wrap;html=1;fillColor=#f8cecc;strokeColor=#b85450;fontSize=15;fontStyle=1;strokeWidth=3;" parent="1" vertex="1">
          <mxGeometry x="360" y="540" width="120" height="60" as="geometry" />
        </mxCell>
        <mxCell id="br7OnLSfUWVw1Vhd88-w-13" style="edgeStyle=orthogonalEdgeStyle;rounded=0;orthogonalLoop=1;jettySize=auto;html=1;exitX=1;exitY=0.5;exitDx=0;exitDy=0;entryX=0;entryY=0.5;entryDx=0;entryDy=0;fontSize=15;fontStyle=1;strokeWidth=3;" parent="1" source="br7OnLSfUWVw1Vhd88-w-11" target="br7OnLSfUWVw1Vhd88-w-14" edge="1">
          <mxGeometry relative="1" as="geometry">
            <mxPoint x="430" y="720" as="targetPoint" />
          </mxGeometry>
        </mxCell>
        <mxCell id="br7OnLSfUWVw1Vhd88-w-11" value="Controller Design" style="whiteSpace=wrap;html=1;fillColor=#d5e8d4;strokeColor=#82b366;fontSize=15;fontStyle=1;strokeWidth=3;" parent="1" vertex="1">
          <mxGeometry x="170" y="690" width="120" height="60" as="geometry" />
        </mxCell>
        <mxCell id="br7OnLSfUWVw1Vhd88-w-15" style="edgeStyle=orthogonalEdgeStyle;rounded=0;orthogonalLoop=1;jettySize=auto;html=1;exitX=0.5;exitY=1;exitDx=0;exitDy=0;entryX=0.5;entryY=0;entryDx=0;entryDy=0;fontSize=15;fontStyle=1;strokeWidth=3;" parent="1" source="br7OnLSfUWVw1Vhd88-w-14" target="br7OnLSfUWVw1Vhd88-w-16" edge="1">
          <mxGeometry relative="1" as="geometry">
            <mxPoint x="420" y="840" as="targetPoint" />
          </mxGeometry>
        </mxCell>
        <mxCell id="br7OnLSfUWVw1Vhd88-w-14" value="Gain Tuning" style="whiteSpace=wrap;html=1;fillColor=#f8cecc;strokeColor=#b85450;fontSize=15;fontStyle=1;strokeWidth=3;" parent="1" vertex="1">
          <mxGeometry x="530" y="690" width="120" height="60" as="geometry" />
        </mxCell>
        <mxCell id="br7OnLSfUWVw1Vhd88-w-18" style="edgeStyle=orthogonalEdgeStyle;rounded=0;orthogonalLoop=1;jettySize=auto;html=1;exitX=1;exitY=0.5;exitDx=0;exitDy=0;entryX=0;entryY=0.5;entryDx=0;entryDy=0;fontSize=15;fontStyle=1;strokeWidth=3;" parent="1" source="br7OnLSfUWVw1Vhd88-w-16" target="br7OnLSfUWVw1Vhd88-w-17" edge="1">
          <mxGeometry relative="1" as="geometry" />
        </mxCell>
        <mxCell id="br7OnLSfUWVw1Vhd88-w-16" value="Tuned Controller" style="ellipse;whiteSpace=wrap;html=1;fillColor=#d5e8d4;strokeColor=#82b366;fontSize=15;fontStyle=1;strokeWidth=3;" parent="1" vertex="1">
          <mxGeometry x="360" y="860" width="120" height="60" as="geometry" />
        </mxCell>
        <mxCell id="br7OnLSfUWVw1Vhd88-w-19" style="edgeStyle=orthogonalEdgeStyle;rounded=0;orthogonalLoop=1;jettySize=auto;html=1;entryX=1;entryY=0.5;entryDx=0;entryDy=0;fontSize=15;fontStyle=1;strokeWidth=3;" parent="1" source="br7OnLSfUWVw1Vhd88-w-17" target="br7OnLSfUWVw1Vhd88-w-14" edge="1">
          <mxGeometry relative="1" as="geometry">
            <Array as="points">
              <mxPoint x="690" y="890" />
              <mxPoint x="690" y="720" />
            </Array>
          </mxGeometry>
        </mxCell>
        <mxCell id="br7OnLSfUWVw1Vhd88-w-20" style="edgeStyle=orthogonalEdgeStyle;rounded=0;orthogonalLoop=1;jettySize=auto;html=1;exitX=0.5;exitY=1;exitDx=0;exitDy=0;entryX=0.5;entryY=0;entryDx=0;entryDy=0;entryPerimeter=0;fontSize=15;fontStyle=1;strokeWidth=3;" parent="1" source="br7OnLSfUWVw1Vhd88-w-17" target="br7OnLSfUWVw1Vhd88-w-21" edge="1">
          <mxGeometry relative="1" as="geometry">
            <mxPoint x="420" y="1000" as="targetPoint" />
          </mxGeometry>
        </mxCell>
        <mxCell id="br7OnLSfUWVw1Vhd88-w-17" value="Verify" style="whiteSpace=wrap;html=1;fillColor=#fff2cc;strokeColor=#d6b656;fontSize=15;fontStyle=1;strokeWidth=3;" parent="1" vertex="1">
          <mxGeometry x="530" y="860" width="120" height="60" as="geometry" />
        </mxCell>
        <mxCell id="br7OnLSfUWVw1Vhd88-w-21" value="Final Controller" style="ellipse;whiteSpace=wrap;html=1;fillColor=#e1d5e7;strokeColor=#9673a6;fontSize=15;fontStyle=1;strokeWidth=3;" parent="1" vertex="1">
          <mxGeometry x="360" y="1010" width="120" height="60" as="geometry" />
        </mxCell>
        <mxCell id="br7OnLSfUWVw1Vhd88-w-22" value="" style="swimlane;startSize=0;fontSize=15;strokeWidth=3;dashed=1;" parent="1" vertex="1">
          <mxGeometry x="313.5" y="60" width="406.5" height="600" as="geometry" />
        </mxCell>
        <mxCell id="br7OnLSfUWVw1Vhd88-w-23" value="&lt;b&gt;Simulation 1&lt;/b&gt;" style="text;html=1;strokeColor=none;fillColor=none;align=center;verticalAlign=middle;whiteSpace=wrap;rounded=0;dashed=1;fontSize=15;" parent="br7OnLSfUWVw1Vhd88-w-22" vertex="1">
          <mxGeometry x="150" width="100" height="30" as="geometry" />
        </mxCell>
      </root>
    </mxGraphModel>
  </diagram>
</mxfile>
